<?xml version="1.0" encoding="UTF-8"?>
<svg version="1.1" xmlns="http://www.w3.org/2000/svg" width="192" height="192">
<path d="M0 0 C0.90194092 -0.00287018 1.80388184 -0.00574036 2.7331543 -0.00869751 C4.62907545 -0.01072762 6.52501805 -0.00527192 8.42089844 0.00732422 C11.30451793 0.02339302 14.18673603 0.00743959 17.0703125 -0.01171875 C18.92187806 -0.00973613 20.77344275 -0.00589207 22.625 0 C23.90346802 -0.00910904 23.90346802 -0.00910904 25.20776367 -0.0184021 C30.8819754 0.04748084 35.10232465 1.13434951 40.3125 3.3984375 C40.3125 4.0584375 40.3125 4.7184375 40.3125 5.3984375 C41.6325 6.0584375 42.9525 6.7184375 44.3125 7.3984375 C44.3125 8.0584375 44.3125 8.7184375 44.3125 9.3984375 C44.9725 9.3984375 45.6325 9.3984375 46.3125 9.3984375 C48.97394351 14.16685712 49.48880578 17.68144906 49.40625 23.16796875 C49.39271484 24.33561768 49.37917969 25.5032666 49.36523438 26.70629883 C49.33913086 28.03890747 49.33913086 28.03890747 49.3125 29.3984375 C50.39144531 29.37749023 51.47039062 29.35654297 52.58203125 29.33496094 C56.61493468 29.26213326 60.6477809 29.21648366 64.68115234 29.17871094 C66.42116089 29.15869228 68.16110299 29.13146864 69.90087891 29.09667969 C72.41325346 29.04772798 74.92473275 29.02537163 77.4375 29.0078125 C78.20553955 28.98716736 78.9735791 28.96652222 79.76489258 28.94525146 C86.54495219 28.94248394 91.53470454 31.14092754 96.7734375 35.3984375 C97.40507812 36.0584375 98.03671875 36.7184375 98.6875 37.3984375 C99.33460938 38.0584375 99.98171875 38.7184375 100.6484375 39.3984375 C103.77070402 43.15102073 104.56589287 45.76950848 104.4375 50.6484375 C104.41945312 51.54046875 104.40140625 52.4325 104.3828125 53.3515625 C104.35960937 54.02703125 104.33640625 54.7025 104.3125 55.3984375 C104.9725 55.3984375 105.6325 55.3984375 106.3125 55.3984375 C106.3125 96.3184375 106.3125 137.2384375 106.3125 179.3984375 C105.6525 179.3984375 104.9925 179.3984375 104.3125 179.3984375 C104.3125 180.3884375 104.3125 181.3784375 104.3125 182.3984375 C100.61545617 184.74687214 97.41484183 184.64990969 93.10083008 184.65240479 C92.00962844 184.65708476 92.00962844 184.65708476 90.89638233 184.66185927 C88.45818294 184.6698381 86.02023251 184.66351614 83.58203125 184.65722656 C81.83425755 184.65993648 80.08648499 184.66349741 78.3387146 184.66784668 C73.590872 184.67697289 68.84311621 184.67342546 64.09527206 184.66708851 C59.12967441 184.66202973 54.16408427 184.66671962 49.19848633 184.66986084 C40.85919865 184.67350084 32.51994637 184.66870049 24.18066406 184.65917969 C14.53535913 184.64829508 4.89013874 184.65182063 -4.75516415 184.6628325 C-13.03210391 184.6719044 -21.30901821 184.67319112 -29.58596134 184.66795516 C-34.53131051 184.66483493 -39.47661993 184.66442758 -44.42196655 184.67102814 C-49.07094664 184.67679955 -53.71981758 184.67280843 -58.36878586 184.66123962 C-60.07641799 184.65859195 -61.78405928 184.65935996 -63.49168777 184.66376495 C-65.81985982 184.66921761 -68.14768051 184.66238981 -70.47583008 184.65240479 C-72.43145622 184.65127371 -72.43145622 184.65127371 -74.42658997 184.65011978 C-77.46376071 184.41570606 -79.14979374 184.01043821 -81.6875 182.3984375 C-81.6875 181.4084375 -81.6875 180.4184375 -81.6875 179.3984375 C-82.3475 179.3984375 -83.0075 179.3984375 -83.6875 179.3984375 C-83.6875 138.4784375 -83.6875 97.5584375 -83.6875 55.3984375 C-83.0275 55.3984375 -82.3675 55.3984375 -81.6875 55.3984375 C-81.73390625 54.74617188 -81.7803125 54.09390625 -81.828125 53.421875 C-82.12363877 46.2662201 -80.85786245 43.03964586 -76.109375 37.5859375 C-72.02278706 33.1680046 -67.76721735 29.91857471 -61.63362122 29.13658142 C-59.38641866 29.0538128 -57.15840552 29.06044608 -54.91015625 29.10546875 C-54.09880722 29.10971359 -53.28745819 29.11395844 -52.45152283 29.11833191 C-49.88399744 29.13499883 -47.31728436 29.17262702 -44.75 29.2109375 C-42.99936037 29.2259999 -41.24870832 29.23968557 -39.49804688 29.25195312 C-35.22755608 29.28486282 -30.95766531 29.33656024 -26.6875 29.3984375 C-26.70490234 28.51003174 -26.72230469 27.62162598 -26.74023438 26.70629883 C-26.75376953 25.5386499 -26.76730469 24.37100098 -26.78125 23.16796875 C-26.79865234 22.01143799 -26.81605469 20.85490723 -26.83398438 19.66333008 C-26.64796771 15.51732854 -25.68980668 12.98590364 -23.6875 9.3984375 C-23.0275 9.3984375 -22.3675 9.3984375 -21.6875 9.3984375 C-21.0275 8.0784375 -20.3675 6.7584375 -19.6875 5.3984375 C-19.0275 5.3984375 -18.3675 5.3984375 -17.6875 5.3984375 C-17.6875 4.7384375 -17.6875 4.0784375 -17.6875 3.3984375 C-11.56796621 0.7391867 -6.63728224 -0.0472904 0 0 Z M-12.6875 17.3984375 C-12.6875 21.3584375 -12.6875 25.3184375 -12.6875 29.3984375 C3.1525 29.3984375 18.9925 29.3984375 35.3125 29.3984375 C35.3125 25.4384375 35.3125 21.4784375 35.3125 17.3984375 C32.16914886 14.15037632 32.16914886 14.15037632 28.1640625 14.01025391 C27.33310059 14.00079742 26.50213867 13.99134094 25.64599609 13.9815979 C24.75219238 13.98767059 23.85838867 13.99374329 22.9375 14 C22.01662598 13.99712982 21.09575195 13.99425964 20.14697266 13.99130249 C18.20018906 13.98926119 16.25338498 13.99479567 14.30664062 14.00732422 C11.32375301 14.02337694 8.34222039 14.00747778 5.359375 13.98828125 C3.468747 13.99026367 1.57811985 13.99410732 -0.3125 14 C-1.20630371 13.99392731 -2.10010742 13.98785461 -3.02099609 13.9815979 C-4.26743896 13.99578262 -4.26743896 13.99578262 -5.5390625 14.01025391 C-6.63468506 14.01383408 -6.63468506 14.01383408 -7.75244141 14.01748657 C-10.14886391 14.3025964 -10.14886391 14.3025964 -12.6875 17.3984375 Z M-2.375 68.7109375 C-4.50412892 71.18533057 -6.11338633 73.55004133 -7.6875 76.3984375 C-8.6775 77.8834375 -8.6775 77.8834375 -9.6875 79.3984375 C-10.02707563 83.47334502 -10.00082486 84.92845021 -7.6875 88.3984375 C-7.60844936 90.73043138 -7.59951231 93.06676372 -7.6875 95.3984375 C-8.3475 95.3984375 -9.0075 95.3984375 -9.6875 95.3984375 C-9.27683689 97.78028356 -9.00626279 99.09252805 -7.234375 100.79296875 C-5.50123816 102.59175471 -4.99047906 103.9094236 -4.25 106.2734375 C-3.2626353 109.18301221 -2.7039379 110.38152995 -0.5 112.6484375 C2.4400484 117.10920059 1.94907892 122.202177 1.3125 127.3984375 C-0.6875 130.3984375 -0.6875 130.3984375 -3.6875 131.3984375 C-3.6875 132.0584375 -3.6875 132.7184375 -3.6875 133.3984375 C-5.27048026 133.8787693 -6.85389978 134.35765362 -8.4375 134.8359375 C-9.31921875 135.10277344 -10.2009375 135.36960937 -11.109375 135.64453125 C-13.6875 136.3984375 -13.6875 136.3984375 -15.84765625 136.81640625 C-19.15435295 137.86247378 -20.6945354 140.70524209 -22.6875 143.3984375 C-23.0175 144.3884375 -23.3475 145.3784375 -23.6875 146.3984375 C-0.2575 146.3984375 23.1725 146.3984375 47.3125 146.3984375 C45.17496191 140.46245172 45.17496191 140.46245172 42.125 139.5234375 C41.526875 139.4821875 40.92875 139.4409375 40.3125 139.3984375 C40.3125 138.7384375 40.3125 138.0784375 40.3125 137.3984375 C33.42425931 134.98853646 33.42425931 134.98853646 26.3125 133.3984375 C26.3125 132.7384375 26.3125 132.0784375 26.3125 131.3984375 C25.4875 130.7384375 24.6625 130.0784375 23.8125 129.3984375 C20.69852389 125.66166617 20.5857788 123.55084585 20.81640625 118.8125 C21.57245041 115.13348194 23.81497794 113.12828719 26.3125 110.3984375 C27.22065977 108.10622638 27.90562751 105.83076979 28.5390625 103.44921875 C29.3125 101.3984375 29.3125 101.3984375 30.8984375 99.81640625 C32.66556539 98.37815519 32.66556539 98.37815519 32.3125 95.3984375 C31.6525 95.3984375 30.9925 95.3984375 30.3125 95.3984375 C31.1875 88.5234375 31.1875 88.5234375 32.3125 87.3984375 C33.17281051 82.42170454 32.7900712 78.35121876 30 74.0859375 C26.5954845 69.96941996 22.63820987 68.6409502 17.60546875 67.1875 C15.3125 66.3984375 15.3125 66.3984375 14.3125 64.3984375 C7.73930506 64.17177561 2.84419642 64.22000105 -2.375 68.7109375 Z " fill="#000000" transform="translate(84.6875,3.6015625)"/>
</svg>
